Coordinates
version=1
nRows=24
nColumns=38
inDegrees=no

Units are S.I. units (second, meters, Newtons, ...)
If the header above contains a line with 'inDegrees', this indicates whether rotational values are in degrees (yes) or radians (no).

endheader
time	pelvis_tilt	pelvis_list	pelvis_rotation	pelvis_tx	pelvis_ty	pelvis_tz	hip_flexion_r	hip_adduction_r	hip_rotation_r	knee_angle_r	ankle_angle_r	subtalar_angle_r	mtp_angle_r	hip_flexion_l	hip_adduction_l	hip_rotation_l	knee_angle_l	ankle_angle_l	subtalar_angle_l	mtp_angle_l	lumbar_extension	lumbar_bending	lumbar_rotation	arm_flex_r	arm_add_r	arm_rot_r	elbow_flex_r	pro_sup_r	wrist_flex_r	wrist_dev_r	arm_flex_l	arm_add_l	arm_rot_l	elbow_flex_l	pro_sup_l	wrist_flex_l	wrist_dev_l
2.05	-2.67283	1.32225	-1.86347	0.733057	1.43656	0.906258	0.240759	-0.290558	-0.474859	0.73139	-0.169182	0	0	-0.387874	0.122854	0.125387	0.722449	-0.0736175	0	0	-0.191819	-0.0197993	0.119262	-0.277985	-0.68266	-0.270977	1.70735	0.658237	0	0	0.755659	-0.563477	1.01167	1.15889	0.485874	0	0
2.06	-2.6884	1.31785	-1.84814	0.734056	1.44714	0.907742	0.223112	-0.288315	-0.488544	0.738493	-0.163039	0	0	-0.371958	0.125287	0.16104	0.785187	-0.0947567	0	0	-0.19707	-0.0168769	0.120078	-0.278236	-0.682106	-0.269754	1.70625	0.659588	0	0	0.754478	-0.564086	1.01115	1.15912	0.484982	0	0
2.07	-2.70435	1.31333	-1.83259	0.735116	1.45771	0.909072	0.203554	-0.28658	-0.505885	0.743728	-0.155704	0	0	-0.351784	0.126919	0.18847	0.852709	-0.119015	0	0	-0.202532	-0.0139313	0.121188	-0.279139	-0.682198	-0.268953	1.70626	0.65924	0	0	0.753643	-0.565416	1.01118	1.16088	0.483525	0	0
2.08	-2.71541	1.31033	-1.82186	0.736027	1.46816	0.91001	0.186006	-0.286772	-0.523971	0.750698	-0.140134	0	0	-0.326053	0.129466	0.210704	0.922657	-0.148673	0	0	-0.206088	-0.0115461	0.122192	-0.28062	-0.683055	-0.268395	1.70716	0.659133	0	0	0.752235	-0.566951	1.00997	1.16333	0.484933	0	0
2.09	-2.72784	1.30821	-1.8107	0.736833	1.47834	0.910682	0.169697	-0.285554	-0.53789	0.755847	-0.132543	0	0	-0.297227	0.131436	0.224489	0.991472	-0.16666	0	0	-0.209489	-0.00818793	0.124596	-0.283423	-0.683938	-0.270251	1.71014	0.663675	0	0	0.751023	-0.567692	1.00717	1.16559	0.49326	0	0
2.1	-2.73909	1.30642	-1.79952	0.737429	1.48817	0.911217	0.154404	-0.284752	-0.55104	0.762426	-0.118963	0	0	-0.266433	0.133629	0.236017	1.05935	-0.183358	0	0	-0.213048	-0.00470659	0.126492	-0.288027	-0.693716	-0.26774	1.71443	0.64534	0	0	0.754295	-0.569037	1.01179	1.16893	0.484957	0	0
2.11	-2.75166	1.30475	-1.78612	0.737815	1.49765	0.911871	0.139006	-0.282523	-0.561877	0.766825	-0.110005	0	0	-0.234953	0.135494	0.245312	1.12537	-0.196604	0	0	-0.217331	-0.000393125	0.128187	-0.292173	-0.698072	-0.271019	1.71856	0.638017	0	0	0.756806	-0.568609	1.01335	1.17119	0.485455	0	0
2.12	-2.76594	1.30182	-1.76982	0.738029	1.50686	0.912863	0.121092	-0.278596	-0.571427	0.767445	-0.103089	0	0	-0.20519	0.137601	0.252917	1.18812	-0.205949	0	0	-0.223341	0.00436292	0.129288	-0.296153	-0.702083	-0.275303	1.7221	0.632101	0	0	0.760159	-0.567002	1.01553	1.17252	0.484102	0	0
2.13	-2.78027	1.29725	-1.75227	0.738146	1.51591	0.914223	0.0994765	-0.272894	-0.580154	0.762822	-0.0966366	0	0	-0.177753	0.141018	0.260025	1.24618	-0.202548	0	0	-0.231008	0.00882761	0.12927	-0.299046	-0.70537	-0.279121	1.7243	0.628656	0	0	0.764213	-0.564944	1.01846	1.17303	0.481137	0	0
2.14	-2.7893	1.29239	-1.73971	0.73831	1.5249	0.915806	0.0765361	-0.267179	-0.588181	0.754854	-0.0944532	0	0	-0.150659	0.146406	0.265989	1.29789	-0.19261	0	0	-0.238317	0.011365	0.128523	-0.300154	-0.705652	-0.28269	1.72465	0.630855	0	0	0.767983	-0.562993	1.02126	1.17256	0.480565	0	0
2.15	-2.7951	1.28577	-1.73055	0.738554	1.53383	0.917671	0.0501567	-0.261284	-0.596547	0.742769	-0.0870136	0	0	-0.127653	0.153641	0.272625	1.3436	-0.16383	0	0	-0.247204	0.0123531	0.127187	-0.299583	-0.707115	-0.283717	1.72397	0.628072	0	0	0.77227	-0.561911	1.02497	1.17209	0.478614	0	0
2.16	-2.79485	1.27954	-1.7291	0.738988	1.5428	0.919583	0.0246881	-0.256885	-0.604199	0.730018	-0.0814406	0	0	-0.105279	0.162792	0.276392	1.38235	-0.137388	0	0	-0.255001	0.0109599	0.12674	-0.297706	-0.706946	-0.283932	1.72206	0.628344	0	0	0.775827	-0.561345	1.02819	1.17135	0.477873	0	0
2.17	-2.79014	1.27416	-1.73395	0.739593	1.55184	0.921436	0.00108803	-0.25381	-0.611133	0.717462	-0.0765816	0	0	-0.0824132	0.173225	0.276892	1.4128	-0.117296	0	0	-0.261412	0.00771508	0.127433	-0.29535	-0.705582	-0.283701	1.7202	0.628128	0	0	0.778061	-0.561253	1.03016	1.17109	0.476285	0	0
2.18	-2.78141	1.26978	-1.74447	0.740323	1.56092	0.923176	-0.0197617	-0.252586	-0.617045	0.70636	-0.0723371	0	0	-0.0591972	0.1848	0.275883	1.43419	-0.103459	0	0	-0.266311	0.00289822	0.1294	-0.293077	-0.703971	-0.283116	1.71835	0.628205	0	0	0.779677	-0.561271	1.03177	1.17055	0.475073	0	0
2.19	-2.76888	1.26624	-1.75997	0.74113	1.57001	0.924803	-0.0381965	-0.252946	-0.62176	0.696474	-0.063914	0	0	-0.0356717	0.196854	0.273134	1.44654	-0.0924365	0	0	-0.27001	-0.00339377	0.132208	-0.290285	-0.697826	-0.285052	1.71632	0.640485	0	0	0.780125	-0.561283	1.03151	1.16958	0.479361	0	0
2.2	-2.75251	1.26364	-1.78016	0.742	1.57907	0.926228	-0.0537447	-0.255367	-0.625633	0.689366	-0.0580813	0	0	-0.0108879	0.20858	0.267471	1.45079	-0.0885868	0	0	-0.272213	-0.0111045	0.135749	-0.288924	-0.698831	-0.282176	1.71498	0.6325	0	0	0.782207	-0.561984	1.03495	1.16902	0.473063	0	0
2.21	-2.73591	1.26194	-1.80088	0.742848	1.58811	0.927448	-0.0675949	-0.258137	-0.628897	0.683068	-0.0593468	0	0	0.0144833	0.219233	0.261616	1.44847	-0.0859192	0	0	-0.273417	-0.0186688	0.139392	-0.287364	-0.6974	-0.281064	1.71388	0.633457	0	0	0.782131	-0.562445	1.03443	1.16852	0.474029	0	0
2.22	-2.719	1.26127	-1.82235	0.743654	1.59719	0.928378	-0.0797697	-0.261191	-0.63126	0.678104	-0.0550024	0	0	0.0400833	0.229191	0.254257	1.44095	-0.0818337	0	0	-0.273112	-0.0261556	0.143446	-0.286482	-0.696994	-0.279426	1.71322	0.632737	0	0	0.782298	-0.563352	1.0349	1.16856	0.472955	0	0
2.23	-2.70412	1.26081	-1.84211	0.744471	1.6063	0.929099	-0.0917666	-0.263427	-0.633206	0.672941	-0.0492949	0	0	0.064716	0.236157	0.243197	1.42744	-0.0766528	0	0	-0.272535	-0.0330272	0.147843	-0.285833	-0.696905	-0.278018	1.71315	0.631545	0	0	0.782631	-0.564571	1.03553	1.16904	0.471519	0	0
2.24	-2.69019	1.26053	-1.86175	0.745287	1.61539	0.929621	-0.103029	-0.265359	-0.633767	0.668195	-0.0421337	0	0	0.0878731	0.241018	0.229998	1.40784	-0.0715086	0	0	-0.271689	-0.0396823	0.153224	-0.285738	-0.697876	-0.277031	1.71371	0.62859	0	0	0.783428	-0.565671	1.03691	1.16966	0.470097	0	0
2.25	-2.6768	1.25929	-1.88154	0.746068	1.62441	0.930024	-0.114768	-0.267534	-0.633383	0.663469	-0.0313809	0	0	0.108294	0.244546	0.215217	1.38217	-0.0672493	0	0	-0.271921	-0.0454242	0.15852	-0.213227	-0.629402	-0.283414	1.6667	0.653599	0	0	0.78318	-0.567159	1.03645	1.17033	0.468205	0	0
2.26	-2.66498	1.25805	-1.90041	0.746821	1.63343	0.930383	-0.126419	-0.268904	-0.631004	0.656933	-0.0245901	0	0	0.126609	0.246382	0.199964	1.34989	-0.0654335	0	0	-0.272043	-0.0527304	0.166639	-0.287225	-0.705631	-0.27498	1.7158	0.620823	0	0	0.786453	-0.566494	1.04035	1.17014	0.465843	0	0
2.27	-2.65601	1.25681	-1.9158	0.747436	1.64243	0.930603	-0.138292	-0.269688	-0.629732	0.651029	-0.022605	0	0	0.142406	0.247528	0.187288	1.31278	-0.0634538	0	0	-0.272493	-0.0576509	0.172804	-0.286952	-0.707957	-0.274218	1.71678	0.618878	0	0	0.786609	-0.5668	1.03986	1.1706	0.46461	0	0
2.28	-2.76901	1.22697	-1.84471	0.753087	1.65552	0.933259	-0.202982	-0.225444	-0.599906	0.59658	-0.02381	0	0	0.141285	-0.0103945	-0.288531	1.29967	-0.168357	0	0	-0.306054	-0.0415272	0.216829	-0.29659	-0.715976	-0.279247	1.72567	0.610939	0	0	0.789447	-0.568878	1.04694	1.17649	0.457817	0	0
